<?xml version="1.0" encoding="UTF-8" standalone="no"?>
<svg
   xmlns:dc="http://purl.org/dc/elements/1.1/"
   xmlns:cc="http://creativecommons.org/ns#"
   xmlns:rdf="http://www.w3.org/1999/02/22-rdf-syntax-ns#"
   xmlns:svg="http://www.w3.org/2000/svg"
   xmlns="http://www.w3.org/2000/svg"
   xmlns:sodipodi="http://sodipodi.sourceforge.net/DTD/sodipodi-0.dtd"
   xmlns:inkscape="http://www.inkscape.org/namespaces/inkscape"
   width="210mm"
   height="297mm"
   viewBox="0 0 210 297"
   version="1.1"
   id="svg8"
   inkscape:export-filename="/Users/moo/Documents/github/avalanche/Assets/Materials/block.png"
   inkscape:export-xdpi="96.657402"
   inkscape:export-ydpi="96.657402"
   inkscape:version="1.0.2 (e86c8708, 2021-01-15)"
   sodipodi:docname="block.svg">
  <defs
     id="defs2" />
  <sodipodi:namedview
     id="base"
     pagecolor="#ffffff"
     bordercolor="#666666"
     borderopacity="1.0"
     inkscape:pageopacity="0.0"
     inkscape:pageshadow="2"
     inkscape:zoom="0.63597525"
     inkscape:cx="366.78363"
     inkscape:cy="505.35533"
     inkscape:document-units="mm"
     inkscape:current-layer="layer1"
     inkscape:document-rotation="0"
     showgrid="false"
     inkscape:window-width="1252"
     inkscape:window-height="847"
     inkscape:window-x="0"
     inkscape:window-y="25"
     inkscape:window-maximized="0" />
  <metadata
     id="metadata5">
    <rdf:RDF>
      <cc:Work
         rdf:about="">
        <dc:format>image/svg+xml</dc:format>
        <dc:type
           rdf:resource="http://purl.org/dc/dcmitype/StillImage" />
        <dc:title></dc:title>
      </cc:Work>
    </rdf:RDF>
  </metadata>
  <g
     inkscape:label="Layer 1"
     inkscape:groupmode="layer"
     id="layer1">
    <path
       id="rect18"
       style="fill:#00d3ff;fill-opacity:1;stroke:#000000;stroke-width:11.3386;stroke-linecap:round;stroke-linejoin:round;stroke-miterlimit:4;stroke-dasharray:none;stroke-opacity:1"
       d="M 136.84961 238.40234 C 102.02675 238.40234 73.994141 266.43691 73.994141 301.25977 L 73.994141 821.25977 C 73.994141 856.08262 102.02675 884.11719 136.84961 884.11719 L 656.84961 884.11719 C 691.67247 884.11719 719.70703 856.08262 719.70703 821.25977 L 719.70703 301.25977 C 719.70703 266.43691 691.67247 238.40234 656.84961 238.40234 L 136.84961 238.40234 z M 396.84961 384.11719 A 177.14285 177.14285 0 0 1 573.99414 561.25977 A 177.14285 177.14285 0 0 1 396.84961 738.40234 A 177.14285 177.14285 0 0 1 219.70703 561.25977 A 177.14285 177.14285 0 0 1 396.84961 384.11719 z M 167.82227 707.94727 A 38.630622 38.630622 0 0 1 167.87695 707.94727 A 38.630622 38.630622 0 0 1 206.50781 746.57812 A 38.630622 38.630622 0 0 1 167.87695 785.20898 A 38.630622 38.630622 0 0 1 129.24609 746.57812 A 38.630622 38.630622 0 0 1 167.82227 707.94727 z "
       transform="scale(0.26458333)" />
    <circle
       style="fill:none;stroke-width:3;stroke-linecap:round;stroke-linejoin:round;stroke:#000000;stroke-opacity:1;stroke-miterlimit:4;stroke-dasharray:none"
       id="path16"
       cx="105"
       cy="148.5"
       r="46.869045" />
    <circle
       style="fill:none;fill-opacity:1;stroke:#000000;stroke-width:3;stroke-linecap:round;stroke-linejoin:round;stroke-miterlimit:4;stroke-dasharray:none;stroke-opacity:1"
       id="path873"
       cx="44.417416"
       cy="197.53221"
       r="10.221019" />
    <circle
       style="fill:#000000;fill-opacity:1;stroke:#000000;stroke-width:3;stroke-linecap:round;stroke-linejoin:round;stroke-miterlimit:4;stroke-dasharray:none;stroke-opacity:1"
       id="path875"
       cx="51.730869"
       cy="95.952415"
       r="5.0062132" />
    <circle
       style="fill:#000000;fill-opacity:1;stroke:#000000;stroke-width:3;stroke-linecap:round;stroke-linejoin:round;stroke-miterlimit:4;stroke-dasharray:none;stroke-opacity:1"
       id="path877"
       cx="138.92241"
       cy="82.602516"
       r="2.0859222" />
    <circle
       style="fill:#000000;fill-opacity:1;stroke:#000000;stroke-width:3;stroke-linecap:round;stroke-linejoin:round;stroke-miterlimit:4;stroke-dasharray:none;stroke-opacity:1"
       id="path879"
       cx="150.18639"
       cy="192.32202"
       r="4.5890288" />
    <circle
       style="fill:#000000;fill-opacity:1;stroke:#000000;stroke-width:3;stroke-linecap:round;stroke-linejoin:round;stroke-miterlimit:4;stroke-dasharray:none;stroke-opacity:1"
       id="path881"
       cx="171.4628"
       cy="173.54872"
       r="7.0921354" />
    <path
       style="fill:#ffffff;fill-opacity:1;stroke:#000000;stroke-width:3;stroke-linecap:round;stroke-linejoin:round;stroke-miterlimit:4;stroke-dasharray:none;stroke-opacity:1"
       id="path886"
       cx="174.52364"
       cy="97.558495"
       r="4.3682909" />
    <path
       style="fill:#ffffff;fill-opacity:1;stroke:#000000;stroke-width:3;stroke-linecap:round;stroke-linejoin:round;stroke-miterlimit:4;stroke-dasharray:none;stroke-opacity:1"
       id="path896"
       cx="174.52364"
       cy="97.558495"
       r="4.3682909" />
  </g>
</svg>
